<svg width="24" height="24" viewBox="0 0 24 24" fill="none" xmlns="http://www.w3.org/2000/svg">
<path d="M12 0C18.6277 0 24 5.37225 24 12C24 18.6277 18.6277 24 12 24C5.37225 24 0 18.6277 0 12C0 5.37225 5.37225 0 12 0ZM5.625 5.44275L11.3213 19.7767L19.2585 10.1063L16.449 7.43475L5.625 5.44275ZM17.814 10.6755L12.0615 17.6835L12.7988 11.5837L17.814 10.6762V10.6755ZM7.104 7.116L12.0787 11.2425L11.3003 17.6775L7.104 7.11525V7.116ZM16.275 8.31225L17.931 9.8865L13.4025 10.7062L16.275 8.31225V8.31225ZM7.6455 6.5835L15.447 8.019L12.4185 10.542L7.6455 6.5835V6.5835Z" fill="#E79E4F"/>
</svg>
